<?xml version="1.0" encoding="UTF-8" standalone="no"?>
<!-- Created with Inkscape (http://www.inkscape.org/) -->

<svg
   xmlns:dc="http://purl.org/dc/elements/1.1/"
   xmlns:cc="http://creativecommons.org/ns#"
   xmlns:rdf="http://www.w3.org/1999/02/22-rdf-syntax-ns#"
   xmlns:svg="http://www.w3.org/2000/svg"
   xmlns="http://www.w3.org/2000/svg"
   xmlns:sodipodi="http://sodipodi.sourceforge.net/DTD/sodipodi-0.dtd"
   xmlns:inkscape="http://www.inkscape.org/namespaces/inkscape"
   width="210mm"
   height="297mm"
   viewBox="0 0 210 297"
   version="1.1"
   id="svg8"
   inkscape:version="0.92.1 r15371"
   sodipodi:docname="babypdf.svg">
  <defs
     id="defs2" />
  <sodipodi:namedview
     id="base"
     pagecolor="#ffffff"
     bordercolor="#666666"
     borderopacity="1.0"
     inkscape:pageopacity="0.0"
     inkscape:pageshadow="2"
     inkscape:zoom="0.7"
     inkscape:cx="655.15748"
     inkscape:cy="573.57207"
     inkscape:document-units="mm"
     inkscape:current-layer="layer1"
     showgrid="false" />
  <metadata
     id="metadata5">
    <rdf:RDF>
      <cc:Work
         rdf:about="">
        <dc:format>image/svg+xml</dc:format>
        <dc:type
           rdf:resource="http://purl.org/dc/dcmitype/StillImage" />
        <dc:title></dc:title>
      </cc:Work>
    </rdf:RDF>
  </metadata>
  <g
     inkscape:label="Layer 1"
     inkscape:groupmode="layer"
     id="layer1">
    <rect
       style="opacity:1;vector-effect:none;fill:#ffffff;fill-opacity:1;stroke:#ffffff;stroke-width:1;stroke-linecap:square;stroke-linejoin:bevel;stroke-miterlimit:4;stroke-dasharray:none;stroke-dashoffset:0;stroke-opacity:1"
       id="rect4485"
       width="170.84525"
       height="100.1637"
       x="20.410715"
       y="78.151787" />
    <g
       aria-label="DrgnS{TooBadWWWIsNotInPDF}"
       transform="matrix(0.26458333,0,0,0.26458333,-23.434524,-73.705357)"
       style="font-style:normal;font-variant:normal;font-weight:normal;font-stretch:normal;font-size:21.33333397px;line-height:125%;font-family:'Cooper Hewitt';-inkscape-font-specification:'Cooper Hewitt';letter-spacing:0px;word-spacing:0px;fill:#ffffff;fill-opacity:1;stroke:none;stroke-width:1px;stroke-linecap:butt;stroke-linejoin:miter;stroke-opacity:1"
       id="flowRoot4487">
      <path
         d="m 219.80924,765.28255 v -18.66666 h 10.66667 v 2.66666 h 2.66667 v 2.66667 h 2.66667 v 8 h -2.66667 v 2.66667 h -2.66667 v 2.66666 z m 5.33334,-2.66666 h 2.66667 v -2.66667 h 2.66666 v -8 h -2.66666 v -2.66667 h -2.66667 z"
         style="font-style:normal;font-variant:normal;font-weight:normal;font-stretch:normal;font-size:21.33333397px;font-family:'C64 Pro Mono';-inkscape-font-specification:'C64 Pro Mono';fill:#ffffff"
         id="path4574" />
      <path
         d="m 241.14258,765.28255 v -13.33333 h 13.33333 v 2.66667 h 2.66667 v 2.66666 h -5.33333 v -2.66666 h -5.33334 v 10.66666 z"
         style="font-style:normal;font-variant:normal;font-weight:normal;font-stretch:normal;font-size:21.33333397px;font-family:'C64 Pro Mono';-inkscape-font-specification:'C64 Pro Mono';fill:#ffffff"
         id="path4576" />
      <path
         d="m 262.47591,767.94922 v -2.66667 h 10.66667 v -2.66666 h -8 v -2.66667 h -2.66667 v -5.33333 h 2.66667 v -2.66667 h 13.33333 v 13.33333 h -2.66666 v 2.66667 z m 5.33334,-8 h 5.33333 v -5.33333 h -5.33333 z"
         style="font-style:normal;font-variant:normal;font-weight:normal;font-stretch:normal;font-size:21.33333397px;font-family:'C64 Pro Mono';-inkscape-font-specification:'C64 Pro Mono';fill:#ffffff"
         id="path4578" />
      <path
         d="m 283.80924,765.28255 v -13.33333 h 13.33334 v 2.66667 h 2.66667 v 10.66666 h -5.33334 v -10.66666 h -5.33333 v 10.66666 z"
         style="font-style:normal;font-variant:normal;font-weight:normal;font-stretch:normal;font-size:21.33333397px;font-family:'C64 Pro Mono';-inkscape-font-specification:'C64 Pro Mono';fill:#ffffff"
         id="path4580" />
      <path
         d="m 307.80925,765.28255 v -2.66666 h -2.66667 v -2.66667 h 5.33333 v 2.66667 h 5.33334 v -5.33334 h -8 v -2.66666 h -2.66667 v -5.33334 h 2.66667 v -2.66666 h 10.66666 v 2.66666 h 2.66667 v 2.66667 h -5.33333 v -2.66667 h -5.33334 v 5.33334 h 8 v 2.66666 h 2.66667 v 5.33334 h -2.66667 v 2.66666 z"
         style="font-style:normal;font-variant:normal;font-weight:normal;font-stretch:normal;font-size:21.33333397px;font-family:'C64 Pro Mono';-inkscape-font-specification:'C64 Pro Mono';fill:#ffffff"
         id="path4582" />
      <path
         d="m 334.47592,765.28255 v -2.66666 h -2.66667 v -5.33334 h -2.66667 v -2.66666 h 2.66667 v -5.33334 h 2.66667 v -2.66666 h 5.33333 v 2.66666 h -2.66667 v 5.33334 h -2.66666 v 2.66666 h 2.66666 v 5.33334 h 2.66667 v 2.66666 z"
         style="font-style:normal;font-variant:normal;font-weight:normal;font-stretch:normal;font-size:21.33333397px;font-family:'C64 Pro Mono';-inkscape-font-specification:'C64 Pro Mono';fill:#ffffff"
         id="path4584" />
      <path
         d="m 353.14258,765.28255 v -16 h -5.33334 v -2.66666 h 16.00001 v 2.66666 h -5.33334 v 16 z"
         style="font-style:normal;font-variant:normal;font-weight:normal;font-stretch:normal;font-size:21.33333397px;font-family:'C64 Pro Mono';-inkscape-font-specification:'C64 Pro Mono';fill:#ffffff"
         id="path4586" />
      <path
         d="m 371.80926,765.28255 v -2.66666 h -2.66667 v -8 h 2.66667 v -2.66667 h 10.66666 v 2.66667 h 2.66667 v 8 h -2.66667 v 2.66666 z m 2.66666,-2.66666 h 5.33334 v -8 h -5.33334 z"
         style="font-style:normal;font-variant:normal;font-weight:normal;font-stretch:normal;font-size:21.33333397px;font-family:'C64 Pro Mono';-inkscape-font-specification:'C64 Pro Mono';fill:#ffffff"
         id="path4588" />
      <path
         d="m 393.14258,765.28255 v -2.66666 h -2.66666 v -8 h 2.66666 v -2.66667 h 10.66667 v 2.66667 h 2.66667 v 8 h -2.66667 v 2.66666 z m 2.66667,-2.66666 h 5.33333 v -8 h -5.33333 z"
         style="font-style:normal;font-variant:normal;font-weight:normal;font-stretch:normal;font-size:21.33333397px;font-family:'C64 Pro Mono';-inkscape-font-specification:'C64 Pro Mono';fill:#ffffff"
         id="path4590" />
      <path
         d="m 411.80924,765.28255 v -18.66666 h 13.33334 v 2.66666 h 2.66667 v 5.33334 h -2.66667 v 2.66666 h 2.66667 v 5.33334 h -2.66667 v 2.66666 z m 5.33334,-2.66666 h 5.33333 v -5.33334 h -5.33333 z m 0,-8 h 5.33333 v -5.33334 h -5.33333 z"
         style="font-style:normal;font-variant:normal;font-weight:normal;font-stretch:normal;font-size:21.33333397px;font-family:'C64 Pro Mono';-inkscape-font-specification:'C64 Pro Mono';fill:#ffffff"
         id="path4592" />
      <path
         d="m 435.80926,765.28255 v -2.66666 h -2.66667 v -2.66667 h 2.66667 v -2.66667 h 8 v -2.66666 h -8 v -2.66667 h 10.66666 v 2.66667 h 2.66667 v 10.66666 z m 2.66666,-2.66666 h 5.33334 v -2.66667 h -5.33334 z"
         style="font-style:normal;font-variant:normal;font-weight:normal;font-stretch:normal;font-size:21.33333397px;font-family:'C64 Pro Mono';-inkscape-font-specification:'C64 Pro Mono';fill:#ffffff"
         id="path4594" />
      <path
         d="m 465.14258,762.61589 h -5.33333 v -5.33334 h 5.33333 z m 5.33334,2.66666 v -16 h -5.33334 v 5.33334 h -8 v 2.66666 h -2.66666 v 5.33334 h 2.66666 v 2.66666 z"
         style="font-style:normal;font-variant:normal;font-weight:normal;font-stretch:normal;font-size:21.33333397px;font-family:'C64 Pro Mono';-inkscape-font-specification:'C64 Pro Mono';fill:#ffffff"
         id="path4596" />
      <path
         d="m 494.47591,746.61589 v 18.66666 h -5.33333 v -2.66666 h -2.66667 v -2.66667 h -2.66666 v 2.66667 h -2.66667 v 2.66666 h -5.33334 v -18.66666 h 5.33334 v 10.66666 h 2.66667 v -2.66666 h 2.66666 v 2.66666 h 2.66667 v -10.66666 z"
         style="font-style:normal;font-variant:normal;font-weight:normal;font-stretch:normal;font-size:21.33333397px;font-family:'C64 Pro Mono';-inkscape-font-specification:'C64 Pro Mono';fill:#ffffff"
         id="path4598" />
      <path
         d="m 515.80926,746.61589 v 18.66666 h -5.33334 v -2.66666 h -2.66666 v -2.66667 h -2.66667 v 2.66667 h -2.66667 v 2.66666 h -5.33333 v -18.66666 h 5.33333 v 10.66666 h 2.66667 v -2.66666 h 2.66667 v 2.66666 h 2.66666 v -10.66666 z"
         style="font-style:normal;font-variant:normal;font-weight:normal;font-stretch:normal;font-size:21.33333397px;font-family:'C64 Pro Mono';-inkscape-font-specification:'C64 Pro Mono';fill:#ffffff"
         id="path4600" />
      <path
         d="m 537.1426,746.61589 v 18.66666 h -5.33333 v -2.66666 h -2.66667 v -2.66667 h -2.66667 v 2.66667 h -2.66666 v 2.66666 h -5.33334 v -18.66666 h 5.33334 v 10.66666 h 2.66666 v -2.66666 h 2.66667 v 2.66666 h 2.66667 v -10.66666 z"
         style="font-style:normal;font-variant:normal;font-weight:normal;font-stretch:normal;font-size:21.33333397px;font-family:'C64 Pro Mono';-inkscape-font-specification:'C64 Pro Mono';fill:#ffffff"
         id="path4602" />
      <path
         d="m 553.14258,746.61589 v 2.66666 h -2.66667 v 13.33334 h 2.66667 v 2.66666 h -10.66667 v -2.66666 h 2.66667 v -13.33334 h -2.66667 v -2.66666 z"
         style="font-style:normal;font-variant:normal;font-weight:normal;font-stretch:normal;font-size:21.33333397px;font-family:'C64 Pro Mono';-inkscape-font-specification:'C64 Pro Mono';fill:#ffffff"
         id="path4604" />
      <path
         d="m 577.14259,751.94922 v 2.66667 h -10.66667 v 2.66666 h 8 v 2.66667 h 2.66667 v 2.66667 h -2.66667 v 2.66666 h -13.33333 v -2.66666 h 10.66667 v -2.66667 h -8 v -2.66667 h -2.66667 v -2.66666 h 2.66667 v -2.66667 z"
         style="font-style:normal;font-variant:normal;font-weight:normal;font-stretch:normal;font-size:21.33333397px;font-family:'C64 Pro Mono';-inkscape-font-specification:'C64 Pro Mono';fill:#ffffff"
         id="path4606" />
      <path
         d="m 582.47593,765.28255 v -18.66666 h 5.33334 v 2.66666 h 2.66666 v 2.66667 h 2.66667 v -5.33333 h 5.33333 v 18.66666 h -5.33333 v -5.33333 h -2.66667 v -2.66667 h -2.66666 v 8 z"
         style="font-style:normal;font-variant:normal;font-weight:normal;font-stretch:normal;font-size:21.33333397px;font-family:'C64 Pro Mono';-inkscape-font-specification:'C64 Pro Mono';fill:#ffffff"
         id="path4608" />
      <path
         d="m 606.47591,765.28255 v -2.66666 h -2.66667 v -8 h 2.66667 v -2.66667 h 10.66667 v 2.66667 h 2.66667 v 8 h -2.66667 v 2.66666 z m 2.66667,-2.66666 h 5.33333 v -8 h -5.33333 z"
         style="font-style:normal;font-variant:normal;font-weight:normal;font-stretch:normal;font-size:21.33333397px;font-family:'C64 Pro Mono';-inkscape-font-specification:'C64 Pro Mono';fill:#ffffff"
         id="path4610" />
      <path
         d="m 635.80926,749.28255 v 2.66667 h 5.33333 v 2.66667 h -5.33333 v 8 h 5.33333 v 2.66666 h -8 v -2.66666 h -2.66667 v -8 h -5.33333 v -2.66667 h 5.33333 v -2.66667 z"
         style="font-style:normal;font-variant:normal;font-weight:normal;font-stretch:normal;font-size:21.33333397px;font-family:'C64 Pro Mono';-inkscape-font-specification:'C64 Pro Mono';fill:#ffffff"
         id="path4612" />
      <path
         d="m 659.80927,746.61589 v 2.66666 h -2.66667 v 13.33334 h 2.66667 v 2.66666 H 649.1426 v -2.66666 h 2.66667 v -13.33334 h -2.66667 v -2.66666 z"
         style="font-style:normal;font-variant:normal;font-weight:normal;font-stretch:normal;font-size:21.33333397px;font-family:'C64 Pro Mono';-inkscape-font-specification:'C64 Pro Mono';fill:#ffffff"
         id="path4614" />
      <path
         d="m 667.80924,765.28255 v -13.33333 h 13.33334 v 2.66667 h 2.66667 v 10.66666 h -5.33334 v -10.66666 h -5.33333 v 10.66666 z"
         style="font-style:normal;font-variant:normal;font-weight:normal;font-stretch:normal;font-size:21.33333397px;font-family:'C64 Pro Mono';-inkscape-font-specification:'C64 Pro Mono';fill:#ffffff"
         id="path4616" />
      <path
         d="m 689.14259,765.28255 v -18.66666 h 13.33333 v 2.66666 h 2.66667 v 5.33334 h -2.66667 v 2.66666 h -8 v 8 z m 5.33333,-10.66666 h 5.33334 v -5.33334 h -5.33334 z"
         style="font-style:normal;font-variant:normal;font-weight:normal;font-stretch:normal;font-size:21.33333397px;font-family:'C64 Pro Mono';-inkscape-font-specification:'C64 Pro Mono';fill:#ffffff"
         id="path4618" />
      <path
         d="m 710.47593,765.28255 v -18.66666 h 10.66667 v 2.66666 h 2.66667 v 2.66667 h 2.66666 v 8 h -2.66666 v 2.66667 h -2.66667 v 2.66666 z m 5.33334,-2.66666 h 2.66666 v -2.66667 h 2.66667 v -8 h -2.66667 v -2.66667 h -2.66666 z"
         style="font-style:normal;font-variant:normal;font-weight:normal;font-stretch:normal;font-size:21.33333397px;font-family:'C64 Pro Mono';-inkscape-font-specification:'C64 Pro Mono';fill:#ffffff"
         id="path4620" />
      <path
         d="m 731.80924,765.28255 v -18.66666 h 16.00001 v 2.66666 h -10.66667 v 5.33334 h 5.33333 v 2.66666 h -5.33333 v 8 z"
         style="font-style:normal;font-variant:normal;font-weight:normal;font-stretch:normal;font-size:21.33333397px;font-family:'C64 Pro Mono';-inkscape-font-specification:'C64 Pro Mono';fill:#ffffff"
         id="path4622" />
      <path
         d="m 761.14262,746.61589 v 2.66666 h 2.66667 v 5.33334 h 2.66666 v 2.66666 h -2.66666 v 5.33334 h -2.66667 v 2.66666 h -5.33333 v -2.66666 h 2.66666 v -5.33334 h 2.66667 v -2.66666 h -2.66667 v -5.33334 h -2.66666 v -2.66666 z"
         style="font-style:normal;font-variant:normal;font-weight:normal;font-stretch:normal;font-size:21.33333397px;font-family:'C64 Pro Mono';-inkscape-font-specification:'C64 Pro Mono';fill:#ffffff"
         id="path4624" />
    </g>
  </g>
</svg>
